<mxfile host="app.diagrams.net" agent="Mozilla/5.0 (Windows NT 10.0; Win64; x64) AppleWebKit/537.36 (KHTML, like Gecko) Chrome/128.0.0.0 Safari/537.36" version="24.7.7">
  <diagram name="Página-1" id="GZxTRpLttT_k54kj_7qR">
    <mxGraphModel dx="1235" dy="655" grid="1" gridSize="10" guides="1" tooltips="1" connect="1" arrows="1" fold="1" page="1" pageScale="1" pageWidth="827" pageHeight="1169" math="0" shadow="0">
      <root>
        <mxCell id="0" />
        <mxCell id="1" parent="0" />
        <mxCell id="B58qPpB6DED_Lv-RJBY6-49" style="edgeStyle=orthogonalEdgeStyle;rounded=0;orthogonalLoop=1;jettySize=auto;html=1;exitX=0.5;exitY=0;exitDx=0;exitDy=0;entryX=0;entryY=0.5;entryDx=0;entryDy=0;" parent="1" source="B58qPpB6DED_Lv-RJBY6-1" target="B58qPpB6DED_Lv-RJBY6-25" edge="1">
          <mxGeometry relative="1" as="geometry">
            <Array as="points">
              <mxPoint x="160" y="610" />
              <mxPoint x="34" y="610" />
              <mxPoint x="34" y="468" />
            </Array>
          </mxGeometry>
        </mxCell>
        <mxCell id="B58qPpB6DED_Lv-RJBY6-1" value="Cliente" style="swimlane;fontStyle=1;align=center;verticalAlign=top;childLayout=stackLayout;horizontal=1;startSize=26;horizontalStack=0;resizeParent=1;resizeParentMax=0;resizeLast=0;collapsible=1;marginBottom=0;whiteSpace=wrap;html=1;" parent="1" vertex="1">
          <mxGeometry x="80" y="690" width="160" height="100" as="geometry" />
        </mxCell>
        <mxCell id="B58qPpB6DED_Lv-RJBY6-2" value="+ id : int&lt;div&gt;+ nome: string&lt;/div&gt;&lt;div&gt;+ cpf : string&lt;/div&gt;&lt;div&gt;- &lt;i&gt;pontos&lt;/i&gt;: &lt;i&gt;int&lt;/i&gt;&lt;/div&gt;" style="text;strokeColor=none;fillColor=none;align=left;verticalAlign=top;spacingLeft=4;spacingRight=4;overflow=hidden;rotatable=0;points=[[0,0.5],[1,0.5]];portConstraint=eastwest;whiteSpace=wrap;html=1;" parent="B58qPpB6DED_Lv-RJBY6-1" vertex="1">
          <mxGeometry y="26" width="160" height="74" as="geometry" />
        </mxCell>
        <mxCell id="B58qPpB6DED_Lv-RJBY6-24" value="&lt;i&gt;Venda&lt;/i&gt;" style="swimlane;fontStyle=1;align=center;verticalAlign=top;childLayout=stackLayout;horizontal=1;startSize=26;horizontalStack=0;resizeParent=1;resizeParentMax=0;resizeLast=0;collapsible=1;marginBottom=0;whiteSpace=wrap;html=1;" parent="1" vertex="1">
          <mxGeometry x="54" y="400" width="360" height="190" as="geometry" />
        </mxCell>
        <mxCell id="B58qPpB6DED_Lv-RJBY6-25" value="+ dataVenda: Date&lt;div&gt;+ formaPagamento: FormaPagamento&lt;/div&gt;&lt;div&gt;+ itensVenda: List&amp;lt;ItensVenda&amp;gt;&lt;/div&gt;&lt;div&gt;+ cliente: Cliente&lt;br&gt;&lt;div&gt;&lt;br&gt;&lt;/div&gt;&lt;/div&gt;" style="text;strokeColor=none;fillColor=none;align=left;verticalAlign=top;spacingLeft=4;spacingRight=4;overflow=hidden;rotatable=0;points=[[0,0.5],[1,0.5]];portConstraint=eastwest;whiteSpace=wrap;html=1;" parent="B58qPpB6DED_Lv-RJBY6-24" vertex="1">
          <mxGeometry y="26" width="360" height="84" as="geometry" />
        </mxCell>
        <mxCell id="B58qPpB6DED_Lv-RJBY6-26" value="" style="line;strokeWidth=1;fillColor=none;align=left;verticalAlign=middle;spacingTop=-1;spacingLeft=3;spacingRight=3;rotatable=0;labelPosition=right;points=[];portConstraint=eastwest;strokeColor=inherit;" parent="B58qPpB6DED_Lv-RJBY6-24" vertex="1">
          <mxGeometry y="110" width="360" height="8" as="geometry" />
        </mxCell>
        <mxCell id="B58qPpB6DED_Lv-RJBY6-27" value="+ gerarCupomFiscal(): string&lt;div&gt;+ adicionarItemProduto(Produto): void&lt;/div&gt;&lt;div&gt;+ calcularPontosCliente(): void&lt;/div&gt;" style="text;strokeColor=none;fillColor=none;align=left;verticalAlign=top;spacingLeft=4;spacingRight=4;overflow=hidden;rotatable=0;points=[[0,0.5],[1,0.5]];portConstraint=eastwest;whiteSpace=wrap;html=1;" parent="B58qPpB6DED_Lv-RJBY6-24" vertex="1">
          <mxGeometry y="118" width="360" height="72" as="geometry" />
        </mxCell>
        <mxCell id="hRp4HZj9Zx9Yj1EvaJ0G-25" style="edgeStyle=orthogonalEdgeStyle;rounded=0;orthogonalLoop=1;jettySize=auto;html=1;entryX=0.563;entryY=0;entryDx=0;entryDy=0;entryPerimeter=0;" edge="1" parent="1" source="B58qPpB6DED_Lv-RJBY6-29" target="hRp4HZj9Zx9Yj1EvaJ0G-13">
          <mxGeometry relative="1" as="geometry">
            <mxPoint x="230" y="75" as="targetPoint" />
            <Array as="points">
              <mxPoint x="110" y="121" />
              <mxPoint x="230" y="121" />
            </Array>
          </mxGeometry>
        </mxCell>
        <mxCell id="B58qPpB6DED_Lv-RJBY6-29" value="FormaPagamento" style="swimlane;fontStyle=1;align=center;verticalAlign=top;childLayout=stackLayout;horizontal=1;startSize=26;horizontalStack=0;resizeParent=1;resizeParentMax=0;resizeLast=0;collapsible=1;marginBottom=0;whiteSpace=wrap;html=1;" parent="1" vertex="1">
          <mxGeometry x="70" y="49" width="140" height="52" as="geometry" />
        </mxCell>
        <mxCell id="B58qPpB6DED_Lv-RJBY6-30" value="+ descrição: string" style="text;strokeColor=none;fillColor=none;align=left;verticalAlign=top;spacingLeft=4;spacingRight=4;overflow=hidden;rotatable=0;points=[[0,0.5],[1,0.5]];portConstraint=eastwest;whiteSpace=wrap;html=1;" parent="B58qPpB6DED_Lv-RJBY6-29" vertex="1">
          <mxGeometry y="26" width="140" height="26" as="geometry" />
        </mxCell>
        <mxCell id="B58qPpB6DED_Lv-RJBY6-45" style="edgeStyle=orthogonalEdgeStyle;rounded=0;orthogonalLoop=1;jettySize=auto;html=1;entryX=0.5;entryY=0;entryDx=0;entryDy=0;" parent="1" source="B58qPpB6DED_Lv-RJBY6-33" target="B58qPpB6DED_Lv-RJBY6-24" edge="1">
          <mxGeometry relative="1" as="geometry" />
        </mxCell>
        <mxCell id="vcXe9TxlWKWAKxXUxMfa-4" value="1" style="edgeLabel;html=1;align=center;verticalAlign=middle;resizable=0;points=[];" parent="B58qPpB6DED_Lv-RJBY6-45" vertex="1" connectable="0">
          <mxGeometry x="0.8028" y="1" relative="1" as="geometry">
            <mxPoint as="offset" />
          </mxGeometry>
        </mxCell>
        <mxCell id="vcXe9TxlWKWAKxXUxMfa-5" value="*" style="edgeLabel;html=1;align=center;verticalAlign=middle;resizable=0;points=[];" parent="B58qPpB6DED_Lv-RJBY6-45" vertex="1" connectable="0">
          <mxGeometry x="-0.9007" y="-2" relative="1" as="geometry">
            <mxPoint as="offset" />
          </mxGeometry>
        </mxCell>
        <mxCell id="B58qPpB6DED_Lv-RJBY6-33" value="ItensVenda" style="swimlane;fontStyle=1;align=center;verticalAlign=top;childLayout=stackLayout;horizontal=1;startSize=26;horizontalStack=0;resizeParent=1;resizeParentMax=0;resizeLast=0;collapsible=1;marginBottom=0;whiteSpace=wrap;html=1;" parent="1" vertex="1">
          <mxGeometry x="360" y="213" width="160" height="100" as="geometry" />
        </mxCell>
        <mxCell id="B58qPpB6DED_Lv-RJBY6-34" value="+ produto: Produto&lt;div&gt;+ quantidade: int&lt;/div&gt;&lt;div&gt;+ desconto: double&lt;/div&gt;&lt;div&gt;+ valorTotal: double&lt;span style=&quot;background-color: initial;&quot;&gt;&amp;nbsp;&lt;/span&gt;&lt;/div&gt;" style="text;strokeColor=none;fillColor=none;align=left;verticalAlign=top;spacingLeft=4;spacingRight=4;overflow=hidden;rotatable=0;points=[[0,0.5],[1,0.5]];portConstraint=eastwest;whiteSpace=wrap;html=1;" parent="B58qPpB6DED_Lv-RJBY6-33" vertex="1">
          <mxGeometry y="26" width="160" height="74" as="geometry" />
        </mxCell>
        <mxCell id="B58qPpB6DED_Lv-RJBY6-41" value="Produto" style="swimlane;fontStyle=1;align=center;verticalAlign=top;childLayout=stackLayout;horizontal=1;startSize=26;horizontalStack=0;resizeParent=1;resizeParentMax=0;resizeLast=0;collapsible=1;marginBottom=0;whiteSpace=wrap;html=1;" parent="1" vertex="1">
          <mxGeometry x="530" y="330" width="160" height="78" as="geometry" />
        </mxCell>
        <mxCell id="B58qPpB6DED_Lv-RJBY6-42" value="+ nomeProduto: string&lt;div&gt;+ precoProduto: double&lt;/div&gt;&lt;div&gt;+ pontosProduto: int&lt;/div&gt;" style="text;strokeColor=none;fillColor=none;align=left;verticalAlign=top;spacingLeft=4;spacingRight=4;overflow=hidden;rotatable=0;points=[[0,0.5],[1,0.5]];portConstraint=eastwest;whiteSpace=wrap;html=1;" parent="B58qPpB6DED_Lv-RJBY6-41" vertex="1">
          <mxGeometry y="26" width="160" height="52" as="geometry" />
        </mxCell>
        <mxCell id="B58qPpB6DED_Lv-RJBY6-46" style="edgeStyle=orthogonalEdgeStyle;rounded=0;orthogonalLoop=1;jettySize=auto;html=1;entryX=1;entryY=0.5;entryDx=0;entryDy=0;" parent="1" source="B58qPpB6DED_Lv-RJBY6-41" target="B58qPpB6DED_Lv-RJBY6-34" edge="1">
          <mxGeometry relative="1" as="geometry">
            <mxPoint x="520" y="270" as="targetPoint" />
          </mxGeometry>
        </mxCell>
        <mxCell id="B58qPpB6DED_Lv-RJBY6-48" style="edgeStyle=orthogonalEdgeStyle;rounded=0;orthogonalLoop=1;jettySize=auto;html=1;entryX=0;entryY=0.5;entryDx=0;entryDy=0;" parent="1" source="B58qPpB6DED_Lv-RJBY6-29" target="hRp4HZj9Zx9Yj1EvaJ0G-18" edge="1">
          <mxGeometry relative="1" as="geometry">
            <mxPoint x="340" y="340" as="targetPoint" />
            <Array as="points">
              <mxPoint x="110" y="276" />
            </Array>
          </mxGeometry>
        </mxCell>
        <mxCell id="vcXe9TxlWKWAKxXUxMfa-2" value="*" style="edgeLabel;html=1;align=center;verticalAlign=middle;resizable=0;points=[];" parent="B58qPpB6DED_Lv-RJBY6-48" vertex="1" connectable="0">
          <mxGeometry x="0.5715" y="-1" relative="1" as="geometry">
            <mxPoint as="offset" />
          </mxGeometry>
        </mxCell>
        <mxCell id="vcXe9TxlWKWAKxXUxMfa-3" value="1&lt;div&gt;&lt;br&gt;&lt;/div&gt;" style="edgeLabel;html=1;align=center;verticalAlign=middle;resizable=0;points=[];" parent="B58qPpB6DED_Lv-RJBY6-48" vertex="1" connectable="0">
          <mxGeometry x="-0.7669" y="1" relative="1" as="geometry">
            <mxPoint y="2" as="offset" />
          </mxGeometry>
        </mxCell>
        <mxCell id="hRp4HZj9Zx9Yj1EvaJ0G-1" value="VendaSimples" style="swimlane;fontStyle=1;align=center;verticalAlign=top;childLayout=stackLayout;horizontal=1;startSize=26;horizontalStack=0;resizeParent=1;resizeParentMax=0;resizeLast=0;collapsible=1;marginBottom=0;whiteSpace=wrap;html=1;" vertex="1" parent="1">
          <mxGeometry x="610" y="600" width="160" height="52" as="geometry" />
        </mxCell>
        <mxCell id="hRp4HZj9Zx9Yj1EvaJ0G-4" value="+ gerarCupomFiscal: void" style="text;strokeColor=none;fillColor=none;align=left;verticalAlign=top;spacingLeft=4;spacingRight=4;overflow=hidden;rotatable=0;points=[[0,0.5],[1,0.5]];portConstraint=eastwest;whiteSpace=wrap;html=1;" vertex="1" parent="hRp4HZj9Zx9Yj1EvaJ0G-1">
          <mxGeometry y="26" width="160" height="26" as="geometry" />
        </mxCell>
        <mxCell id="hRp4HZj9Zx9Yj1EvaJ0G-9" value="VendaFidelizada" style="swimlane;fontStyle=1;align=center;verticalAlign=top;childLayout=stackLayout;horizontal=1;startSize=26;horizontalStack=0;resizeParent=1;resizeParentMax=0;resizeLast=0;collapsible=1;marginBottom=0;whiteSpace=wrap;html=1;" vertex="1" parent="1">
          <mxGeometry x="430" y="600" width="160" height="100" as="geometry" />
        </mxCell>
        <mxCell id="hRp4HZj9Zx9Yj1EvaJ0G-10" value="+ cliente: Cliente" style="text;strokeColor=none;fillColor=none;align=left;verticalAlign=top;spacingLeft=4;spacingRight=4;overflow=hidden;rotatable=0;points=[[0,0.5],[1,0.5]];portConstraint=eastwest;whiteSpace=wrap;html=1;" vertex="1" parent="hRp4HZj9Zx9Yj1EvaJ0G-9">
          <mxGeometry y="26" width="160" height="26" as="geometry" />
        </mxCell>
        <mxCell id="hRp4HZj9Zx9Yj1EvaJ0G-11" value="" style="line;strokeWidth=1;fillColor=none;align=left;verticalAlign=middle;spacingTop=-1;spacingLeft=3;spacingRight=3;rotatable=0;labelPosition=right;points=[];portConstraint=eastwest;strokeColor=inherit;" vertex="1" parent="hRp4HZj9Zx9Yj1EvaJ0G-9">
          <mxGeometry y="52" width="160" height="8" as="geometry" />
        </mxCell>
        <mxCell id="hRp4HZj9Zx9Yj1EvaJ0G-12" value="+ calcularPontos: void&lt;div&gt;+ gerarCupomFiscal: void&lt;/div&gt;" style="text;strokeColor=none;fillColor=none;align=left;verticalAlign=top;spacingLeft=4;spacingRight=4;overflow=hidden;rotatable=0;points=[[0,0.5],[1,0.5]];portConstraint=eastwest;whiteSpace=wrap;html=1;" vertex="1" parent="hRp4HZj9Zx9Yj1EvaJ0G-9">
          <mxGeometry y="60" width="160" height="40" as="geometry" />
        </mxCell>
        <mxCell id="hRp4HZj9Zx9Yj1EvaJ0G-13" value="PagamentoCartao" style="swimlane;fontStyle=1;align=center;verticalAlign=top;childLayout=stackLayout;horizontal=1;startSize=26;horizontalStack=0;resizeParent=1;resizeParentMax=0;resizeLast=0;collapsible=1;marginBottom=0;whiteSpace=wrap;html=1;" vertex="1" parent="1">
          <mxGeometry x="140" y="140" width="160" height="70" as="geometry" />
        </mxCell>
        <mxCell id="hRp4HZj9Zx9Yj1EvaJ0G-14" value="+ tipoCartao: string&lt;div&gt;+ numeroCartao: int&lt;/div&gt;" style="text;strokeColor=none;fillColor=none;align=left;verticalAlign=top;spacingLeft=4;spacingRight=4;overflow=hidden;rotatable=0;points=[[0,0.5],[1,0.5]];portConstraint=eastwest;whiteSpace=wrap;html=1;" vertex="1" parent="hRp4HZj9Zx9Yj1EvaJ0G-13">
          <mxGeometry y="26" width="160" height="44" as="geometry" />
        </mxCell>
        <mxCell id="hRp4HZj9Zx9Yj1EvaJ0G-17" value="PagamentoDinheiro" style="swimlane;fontStyle=1;align=center;verticalAlign=top;childLayout=stackLayout;horizontal=1;startSize=26;horizontalStack=0;resizeParent=1;resizeParentMax=0;resizeLast=0;collapsible=1;marginBottom=0;whiteSpace=wrap;html=1;" vertex="1" parent="1">
          <mxGeometry x="140" y="237" width="160" height="86" as="geometry" />
        </mxCell>
        <mxCell id="hRp4HZj9Zx9Yj1EvaJ0G-18" value="+ ValorRecebido: valor" style="text;strokeColor=none;fillColor=none;align=left;verticalAlign=top;spacingLeft=4;spacingRight=4;overflow=hidden;rotatable=0;points=[[0,0.5],[1,0.5]];portConstraint=eastwest;whiteSpace=wrap;html=1;" vertex="1" parent="hRp4HZj9Zx9Yj1EvaJ0G-17">
          <mxGeometry y="26" width="160" height="26" as="geometry" />
        </mxCell>
        <mxCell id="hRp4HZj9Zx9Yj1EvaJ0G-19" value="" style="line;strokeWidth=1;fillColor=none;align=left;verticalAlign=middle;spacingTop=-1;spacingLeft=3;spacingRight=3;rotatable=0;labelPosition=right;points=[];portConstraint=eastwest;strokeColor=inherit;" vertex="1" parent="hRp4HZj9Zx9Yj1EvaJ0G-17">
          <mxGeometry y="52" width="160" height="8" as="geometry" />
        </mxCell>
        <mxCell id="hRp4HZj9Zx9Yj1EvaJ0G-20" value="+ descricao: void" style="text;strokeColor=none;fillColor=none;align=left;verticalAlign=top;spacingLeft=4;spacingRight=4;overflow=hidden;rotatable=0;points=[[0,0.5],[1,0.5]];portConstraint=eastwest;whiteSpace=wrap;html=1;" vertex="1" parent="hRp4HZj9Zx9Yj1EvaJ0G-17">
          <mxGeometry y="60" width="160" height="26" as="geometry" />
        </mxCell>
        <mxCell id="hRp4HZj9Zx9Yj1EvaJ0G-21" value="GerenciarVendas" style="swimlane;fontStyle=1;align=center;verticalAlign=top;childLayout=stackLayout;horizontal=1;startSize=26;horizontalStack=0;resizeParent=1;resizeParentMax=0;resizeLast=0;collapsible=1;marginBottom=0;whiteSpace=wrap;html=1;" vertex="1" parent="1">
          <mxGeometry x="370" y="32" width="160" height="86" as="geometry" />
        </mxCell>
        <mxCell id="hRp4HZj9Zx9Yj1EvaJ0G-22" value="+&amp;nbsp; Vendas: List&amp;lt;Venda&amp;gt;" style="text;strokeColor=none;fillColor=none;align=left;verticalAlign=top;spacingLeft=4;spacingRight=4;overflow=hidden;rotatable=0;points=[[0,0.5],[1,0.5]];portConstraint=eastwest;whiteSpace=wrap;html=1;" vertex="1" parent="hRp4HZj9Zx9Yj1EvaJ0G-21">
          <mxGeometry y="26" width="160" height="26" as="geometry" />
        </mxCell>
        <mxCell id="hRp4HZj9Zx9Yj1EvaJ0G-23" value="" style="line;strokeWidth=1;fillColor=none;align=left;verticalAlign=middle;spacingTop=-1;spacingLeft=3;spacingRight=3;rotatable=0;labelPosition=right;points=[];portConstraint=eastwest;strokeColor=inherit;" vertex="1" parent="hRp4HZj9Zx9Yj1EvaJ0G-21">
          <mxGeometry y="52" width="160" height="8" as="geometry" />
        </mxCell>
        <mxCell id="hRp4HZj9Zx9Yj1EvaJ0G-24" value="+ adicionarVenda: void" style="text;strokeColor=none;fillColor=none;align=left;verticalAlign=top;spacingLeft=4;spacingRight=4;overflow=hidden;rotatable=0;points=[[0,0.5],[1,0.5]];portConstraint=eastwest;whiteSpace=wrap;html=1;" vertex="1" parent="hRp4HZj9Zx9Yj1EvaJ0G-21">
          <mxGeometry y="60" width="160" height="26" as="geometry" />
        </mxCell>
        <mxCell id="hRp4HZj9Zx9Yj1EvaJ0G-29" style="edgeStyle=orthogonalEdgeStyle;rounded=0;orthogonalLoop=1;jettySize=auto;html=1;exitX=1;exitY=0.5;exitDx=0;exitDy=0;entryX=0.5;entryY=0;entryDx=0;entryDy=0;" edge="1" parent="1" source="hRp4HZj9Zx9Yj1EvaJ0G-24" target="B58qPpB6DED_Lv-RJBY6-33">
          <mxGeometry relative="1" as="geometry" />
        </mxCell>
        <mxCell id="hRp4HZj9Zx9Yj1EvaJ0G-30" style="edgeStyle=orthogonalEdgeStyle;rounded=0;orthogonalLoop=1;jettySize=auto;html=1;entryX=0.5;entryY=0;entryDx=0;entryDy=0;exitX=1;exitY=0.5;exitDx=0;exitDy=0;" edge="1" parent="1" source="B58qPpB6DED_Lv-RJBY6-27" target="hRp4HZj9Zx9Yj1EvaJ0G-9">
          <mxGeometry relative="1" as="geometry">
            <Array as="points">
              <mxPoint x="414" y="500" />
              <mxPoint x="510" y="500" />
            </Array>
          </mxGeometry>
        </mxCell>
        <mxCell id="hRp4HZj9Zx9Yj1EvaJ0G-32" style="edgeStyle=orthogonalEdgeStyle;rounded=0;orthogonalLoop=1;jettySize=auto;html=1;entryX=0.466;entryY=-0.009;entryDx=0;entryDy=0;entryPerimeter=0;" edge="1" parent="1" source="B58qPpB6DED_Lv-RJBY6-25" target="hRp4HZj9Zx9Yj1EvaJ0G-1">
          <mxGeometry relative="1" as="geometry">
            <Array as="points">
              <mxPoint x="685" y="500" />
            </Array>
          </mxGeometry>
        </mxCell>
      </root>
    </mxGraphModel>
  </diagram>
</mxfile>
